<mxfile host="app.diagrams.net" modified="2024-07-09T01:37:45.449Z" agent="Mozilla/5.0 (Windows NT 10.0; Win64; x64) AppleWebKit/537.36 (KHTML, like Gecko) Chrome/126.0.0.0 Safari/537.36" etag="myA77T_AEHqDP8iNu1k3" version="24.6.4" type="github">
  <diagram name="PÃ¡gina-1" id="LUSA24zUjMxwE82VFNc1">
    <mxGraphModel dx="1195" dy="622" grid="0" gridSize="10" guides="1" tooltips="1" connect="1" arrows="1" fold="1" page="1" pageScale="1" pageWidth="827" pageHeight="1169" math="0" shadow="0">
      <root>
        <mxCell id="0" />
        <mxCell id="1" parent="0" />
        <mxCell id="OqbQ4sYl66E1r_fSmcML-223" value="" style="ellipse;whiteSpace=wrap;html=1;aspect=fixed;" vertex="1" parent="1">
          <mxGeometry x="582" y="969.5" width="80" height="80" as="geometry" />
        </mxCell>
        <mxCell id="OqbQ4sYl66E1r_fSmcML-2" value="&lt;h1&gt;s?o*(d+|d*pd+)&lt;/h1&gt;" style="text;html=1;align=center;verticalAlign=middle;whiteSpace=wrap;rounded=0;" vertex="1" parent="1">
          <mxGeometry x="19" y="28" width="275" height="18" as="geometry" />
        </mxCell>
        <mxCell id="OqbQ4sYl66E1r_fSmcML-14" style="edgeStyle=orthogonalEdgeStyle;rounded=0;orthogonalLoop=1;jettySize=auto;html=1;entryX=0;entryY=0.5;entryDx=0;entryDy=0;exitX=0.5;exitY=0;exitDx=0;exitDy=0;" edge="1" parent="1" source="OqbQ4sYl66E1r_fSmcML-5" target="OqbQ4sYl66E1r_fSmcML-8">
          <mxGeometry relative="1" as="geometry" />
        </mxCell>
        <mxCell id="OqbQ4sYl66E1r_fSmcML-5" value="?" style="ellipse;whiteSpace=wrap;html=1;aspect=fixed;" vertex="1" parent="1">
          <mxGeometry x="62" y="326" width="42" height="42" as="geometry" />
        </mxCell>
        <mxCell id="OqbQ4sYl66E1r_fSmcML-7" style="edgeStyle=orthogonalEdgeStyle;rounded=0;orthogonalLoop=1;jettySize=auto;html=1;exitX=0.5;exitY=0;exitDx=0;exitDy=0;entryX=0.5;entryY=1;entryDx=0;entryDy=0;" edge="1" parent="1" source="OqbQ4sYl66E1r_fSmcML-6" target="OqbQ4sYl66E1r_fSmcML-5">
          <mxGeometry relative="1" as="geometry" />
        </mxCell>
        <mxCell id="OqbQ4sYl66E1r_fSmcML-6" value="s" style="ellipse;whiteSpace=wrap;html=1;aspect=fixed;" vertex="1" parent="1">
          <mxGeometry x="62" y="409" width="42" height="42" as="geometry" />
        </mxCell>
        <mxCell id="OqbQ4sYl66E1r_fSmcML-18" style="edgeStyle=orthogonalEdgeStyle;rounded=0;orthogonalLoop=1;jettySize=auto;html=1;entryX=0;entryY=0.5;entryDx=0;entryDy=0;exitX=0.5;exitY=0;exitDx=0;exitDy=0;" edge="1" parent="1" source="OqbQ4sYl66E1r_fSmcML-8" target="OqbQ4sYl66E1r_fSmcML-17">
          <mxGeometry relative="1" as="geometry" />
        </mxCell>
        <mxCell id="OqbQ4sYl66E1r_fSmcML-8" value="." style="ellipse;whiteSpace=wrap;html=1;aspect=fixed;" vertex="1" parent="1">
          <mxGeometry x="111" y="260" width="42" height="42" as="geometry" />
        </mxCell>
        <mxCell id="OqbQ4sYl66E1r_fSmcML-13" style="edgeStyle=orthogonalEdgeStyle;rounded=0;orthogonalLoop=1;jettySize=auto;html=1;entryX=0.5;entryY=1;entryDx=0;entryDy=0;" edge="1" parent="1" source="OqbQ4sYl66E1r_fSmcML-10" target="OqbQ4sYl66E1r_fSmcML-12">
          <mxGeometry relative="1" as="geometry" />
        </mxCell>
        <mxCell id="OqbQ4sYl66E1r_fSmcML-10" value="o" style="ellipse;whiteSpace=wrap;html=1;aspect=fixed;" vertex="1" parent="1">
          <mxGeometry x="156" y="409" width="39" height="39" as="geometry" />
        </mxCell>
        <mxCell id="OqbQ4sYl66E1r_fSmcML-15" style="edgeStyle=orthogonalEdgeStyle;rounded=0;orthogonalLoop=1;jettySize=auto;html=1;entryX=1;entryY=0.5;entryDx=0;entryDy=0;exitX=0.5;exitY=0;exitDx=0;exitDy=0;" edge="1" parent="1" source="OqbQ4sYl66E1r_fSmcML-12" target="OqbQ4sYl66E1r_fSmcML-8">
          <mxGeometry relative="1" as="geometry" />
        </mxCell>
        <mxCell id="OqbQ4sYl66E1r_fSmcML-12" value="*" style="ellipse;whiteSpace=wrap;html=1;aspect=fixed;" vertex="1" parent="1">
          <mxGeometry x="154.5" y="326" width="42" height="42" as="geometry" />
        </mxCell>
        <mxCell id="OqbQ4sYl66E1r_fSmcML-47" style="edgeStyle=orthogonalEdgeStyle;rounded=0;orthogonalLoop=1;jettySize=auto;html=1;exitX=0.5;exitY=0;exitDx=0;exitDy=0;entryX=0;entryY=0.5;entryDx=0;entryDy=0;" edge="1" parent="1" source="OqbQ4sYl66E1r_fSmcML-17" target="OqbQ4sYl66E1r_fSmcML-46">
          <mxGeometry relative="1" as="geometry" />
        </mxCell>
        <mxCell id="OqbQ4sYl66E1r_fSmcML-17" value="." style="ellipse;whiteSpace=wrap;html=1;aspect=fixed;" vertex="1" parent="1">
          <mxGeometry x="308" y="157" width="42" height="42" as="geometry" />
        </mxCell>
        <mxCell id="OqbQ4sYl66E1r_fSmcML-19" style="edgeStyle=orthogonalEdgeStyle;rounded=0;orthogonalLoop=1;jettySize=auto;html=1;entryX=0.5;entryY=1;entryDx=0;entryDy=0;" edge="1" parent="1" source="OqbQ4sYl66E1r_fSmcML-20" target="OqbQ4sYl66E1r_fSmcML-21">
          <mxGeometry relative="1" as="geometry" />
        </mxCell>
        <mxCell id="OqbQ4sYl66E1r_fSmcML-20" value="d" style="ellipse;whiteSpace=wrap;html=1;aspect=fixed;" vertex="1" parent="1">
          <mxGeometry x="272.5" y="467" width="39" height="39" as="geometry" />
        </mxCell>
        <mxCell id="OqbQ4sYl66E1r_fSmcML-33" style="edgeStyle=orthogonalEdgeStyle;rounded=0;orthogonalLoop=1;jettySize=auto;html=1;exitX=0.5;exitY=0;exitDx=0;exitDy=0;entryX=0;entryY=0.5;entryDx=0;entryDy=0;" edge="1" parent="1" source="OqbQ4sYl66E1r_fSmcML-21" target="OqbQ4sYl66E1r_fSmcML-32">
          <mxGeometry relative="1" as="geometry" />
        </mxCell>
        <mxCell id="OqbQ4sYl66E1r_fSmcML-21" value="+" style="ellipse;whiteSpace=wrap;html=1;aspect=fixed;" vertex="1" parent="1">
          <mxGeometry x="271" y="384" width="42" height="42" as="geometry" />
        </mxCell>
        <mxCell id="OqbQ4sYl66E1r_fSmcML-29" style="edgeStyle=orthogonalEdgeStyle;rounded=0;orthogonalLoop=1;jettySize=auto;html=1;entryX=0.5;entryY=1;entryDx=0;entryDy=0;" edge="1" parent="1" source="OqbQ4sYl66E1r_fSmcML-30" target="OqbQ4sYl66E1r_fSmcML-31">
          <mxGeometry relative="1" as="geometry" />
        </mxCell>
        <mxCell id="OqbQ4sYl66E1r_fSmcML-30" value="d" style="ellipse;whiteSpace=wrap;html=1;aspect=fixed;" vertex="1" parent="1">
          <mxGeometry x="357.5" y="467" width="39" height="39" as="geometry" />
        </mxCell>
        <mxCell id="OqbQ4sYl66E1r_fSmcML-34" style="edgeStyle=orthogonalEdgeStyle;rounded=0;orthogonalLoop=1;jettySize=auto;html=1;entryX=1;entryY=0.5;entryDx=0;entryDy=0;exitX=0.5;exitY=0;exitDx=0;exitDy=0;" edge="1" parent="1" source="OqbQ4sYl66E1r_fSmcML-31" target="OqbQ4sYl66E1r_fSmcML-32">
          <mxGeometry relative="1" as="geometry" />
        </mxCell>
        <mxCell id="OqbQ4sYl66E1r_fSmcML-31" value="*" style="ellipse;whiteSpace=wrap;html=1;aspect=fixed;" vertex="1" parent="1">
          <mxGeometry x="356" y="384" width="42" height="42" as="geometry" />
        </mxCell>
        <mxCell id="OqbQ4sYl66E1r_fSmcML-43" style="edgeStyle=orthogonalEdgeStyle;rounded=0;orthogonalLoop=1;jettySize=auto;html=1;exitX=0.5;exitY=0;exitDx=0;exitDy=0;entryX=0;entryY=0.5;entryDx=0;entryDy=0;" edge="1" parent="1" source="OqbQ4sYl66E1r_fSmcML-32" target="OqbQ4sYl66E1r_fSmcML-35">
          <mxGeometry relative="1" as="geometry" />
        </mxCell>
        <mxCell id="OqbQ4sYl66E1r_fSmcML-32" value="|" style="ellipse;whiteSpace=wrap;html=1;aspect=fixed;" vertex="1" parent="1">
          <mxGeometry x="313" y="324" width="42" height="42" as="geometry" />
        </mxCell>
        <mxCell id="OqbQ4sYl66E1r_fSmcML-45" style="edgeStyle=orthogonalEdgeStyle;rounded=0;orthogonalLoop=1;jettySize=auto;html=1;exitX=0.5;exitY=0;exitDx=0;exitDy=0;entryX=1;entryY=0.5;entryDx=0;entryDy=0;" edge="1" parent="1" source="OqbQ4sYl66E1r_fSmcML-35" target="OqbQ4sYl66E1r_fSmcML-17">
          <mxGeometry relative="1" as="geometry" />
        </mxCell>
        <mxCell id="OqbQ4sYl66E1r_fSmcML-35" value="." style="ellipse;whiteSpace=wrap;html=1;aspect=fixed;" vertex="1" parent="1">
          <mxGeometry x="404" y="265" width="42" height="42" as="geometry" />
        </mxCell>
        <mxCell id="OqbQ4sYl66E1r_fSmcML-44" style="edgeStyle=orthogonalEdgeStyle;rounded=0;orthogonalLoop=1;jettySize=auto;html=1;entryX=1;entryY=0.5;entryDx=0;entryDy=0;exitX=0.5;exitY=0;exitDx=0;exitDy=0;" edge="1" parent="1" source="OqbQ4sYl66E1r_fSmcML-36" target="OqbQ4sYl66E1r_fSmcML-35">
          <mxGeometry relative="1" as="geometry" />
        </mxCell>
        <mxCell id="OqbQ4sYl66E1r_fSmcML-36" value="." style="ellipse;whiteSpace=wrap;html=1;aspect=fixed;" vertex="1" parent="1">
          <mxGeometry x="486" y="324" width="42" height="42" as="geometry" />
        </mxCell>
        <mxCell id="OqbQ4sYl66E1r_fSmcML-41" style="edgeStyle=orthogonalEdgeStyle;rounded=0;orthogonalLoop=1;jettySize=auto;html=1;exitX=0.5;exitY=0;exitDx=0;exitDy=0;entryX=0;entryY=0.5;entryDx=0;entryDy=0;" edge="1" parent="1" source="OqbQ4sYl66E1r_fSmcML-37" target="OqbQ4sYl66E1r_fSmcML-36">
          <mxGeometry relative="1" as="geometry" />
        </mxCell>
        <mxCell id="OqbQ4sYl66E1r_fSmcML-37" value="p" style="ellipse;whiteSpace=wrap;html=1;aspect=fixed;" vertex="1" parent="1">
          <mxGeometry x="438" y="381" width="42" height="42" as="geometry" />
        </mxCell>
        <mxCell id="OqbQ4sYl66E1r_fSmcML-38" style="edgeStyle=orthogonalEdgeStyle;rounded=0;orthogonalLoop=1;jettySize=auto;html=1;entryX=0.5;entryY=1;entryDx=0;entryDy=0;" edge="1" parent="1" source="OqbQ4sYl66E1r_fSmcML-39" target="OqbQ4sYl66E1r_fSmcML-40">
          <mxGeometry relative="1" as="geometry" />
        </mxCell>
        <mxCell id="OqbQ4sYl66E1r_fSmcML-39" value="d" style="ellipse;whiteSpace=wrap;html=1;aspect=fixed;" vertex="1" parent="1">
          <mxGeometry x="541.5" y="467" width="39" height="39" as="geometry" />
        </mxCell>
        <mxCell id="OqbQ4sYl66E1r_fSmcML-42" style="edgeStyle=orthogonalEdgeStyle;rounded=0;orthogonalLoop=1;jettySize=auto;html=1;exitX=0.5;exitY=0;exitDx=0;exitDy=0;entryX=1;entryY=0.5;entryDx=0;entryDy=0;" edge="1" parent="1" source="OqbQ4sYl66E1r_fSmcML-40" target="OqbQ4sYl66E1r_fSmcML-36">
          <mxGeometry relative="1" as="geometry" />
        </mxCell>
        <mxCell id="OqbQ4sYl66E1r_fSmcML-40" value="+" style="ellipse;whiteSpace=wrap;html=1;aspect=fixed;" vertex="1" parent="1">
          <mxGeometry x="540" y="384" width="42" height="42" as="geometry" />
        </mxCell>
        <mxCell id="OqbQ4sYl66E1r_fSmcML-46" value="." style="ellipse;whiteSpace=wrap;html=1;aspect=fixed;" vertex="1" parent="1">
          <mxGeometry x="493" y="102" width="42" height="42" as="geometry" />
        </mxCell>
        <mxCell id="OqbQ4sYl66E1r_fSmcML-49" style="edgeStyle=orthogonalEdgeStyle;rounded=0;orthogonalLoop=1;jettySize=auto;html=1;exitX=0.5;exitY=0;exitDx=0;exitDy=0;entryX=1;entryY=0.5;entryDx=0;entryDy=0;" edge="1" parent="1" source="OqbQ4sYl66E1r_fSmcML-48" target="OqbQ4sYl66E1r_fSmcML-46">
          <mxGeometry relative="1" as="geometry" />
        </mxCell>
        <mxCell id="OqbQ4sYl66E1r_fSmcML-48" value="#" style="ellipse;whiteSpace=wrap;html=1;aspect=fixed;" vertex="1" parent="1">
          <mxGeometry x="582" y="157" width="42" height="42" as="geometry" />
        </mxCell>
        <mxCell id="OqbQ4sYl66E1r_fSmcML-50" value="" style="shape=table;startSize=0;container=1;collapsible=0;childLayout=tableLayout;fontSize=16;" vertex="1" parent="1">
          <mxGeometry x="55" y="598" width="180" height="320" as="geometry" />
        </mxCell>
        <mxCell id="OqbQ4sYl66E1r_fSmcML-51" value="" style="shape=tableRow;horizontal=0;startSize=0;swimlaneHead=0;swimlaneBody=0;strokeColor=inherit;top=0;left=0;bottom=0;right=0;collapsible=0;dropTarget=0;fillColor=none;points=[[0,0.5],[1,0.5]];portConstraint=eastwest;fontSize=16;" vertex="1" parent="OqbQ4sYl66E1r_fSmcML-50">
          <mxGeometry width="180" height="40" as="geometry" />
        </mxCell>
        <mxCell id="OqbQ4sYl66E1r_fSmcML-52" value="No" style="shape=partialRectangle;html=1;whiteSpace=wrap;connectable=0;strokeColor=inherit;overflow=hidden;fillColor=none;top=0;left=0;bottom=0;right=0;pointerEvents=1;fontSize=16;" vertex="1" parent="OqbQ4sYl66E1r_fSmcML-51">
          <mxGeometry width="60" height="40" as="geometry">
            <mxRectangle width="60" height="40" as="alternateBounds" />
          </mxGeometry>
        </mxCell>
        <mxCell id="OqbQ4sYl66E1r_fSmcML-53" value="Letra" style="shape=partialRectangle;html=1;whiteSpace=wrap;connectable=0;strokeColor=inherit;overflow=hidden;fillColor=none;top=0;left=0;bottom=0;right=0;pointerEvents=1;fontSize=16;" vertex="1" parent="OqbQ4sYl66E1r_fSmcML-51">
          <mxGeometry x="60" width="60" height="40" as="geometry">
            <mxRectangle width="60" height="40" as="alternateBounds" />
          </mxGeometry>
        </mxCell>
        <mxCell id="OqbQ4sYl66E1r_fSmcML-54" value="Follow" style="shape=partialRectangle;html=1;whiteSpace=wrap;connectable=0;strokeColor=inherit;overflow=hidden;fillColor=none;top=0;left=0;bottom=0;right=0;pointerEvents=1;fontSize=16;" vertex="1" parent="OqbQ4sYl66E1r_fSmcML-51">
          <mxGeometry x="120" width="60" height="40" as="geometry">
            <mxRectangle width="60" height="40" as="alternateBounds" />
          </mxGeometry>
        </mxCell>
        <mxCell id="OqbQ4sYl66E1r_fSmcML-98" style="shape=tableRow;horizontal=0;startSize=0;swimlaneHead=0;swimlaneBody=0;strokeColor=inherit;top=0;left=0;bottom=0;right=0;collapsible=0;dropTarget=0;fillColor=none;points=[[0,0.5],[1,0.5]];portConstraint=eastwest;fontSize=16;" vertex="1" parent="OqbQ4sYl66E1r_fSmcML-50">
          <mxGeometry y="40" width="180" height="40" as="geometry" />
        </mxCell>
        <mxCell id="OqbQ4sYl66E1r_fSmcML-99" value="1" style="shape=partialRectangle;html=1;whiteSpace=wrap;connectable=0;strokeColor=inherit;overflow=hidden;fillColor=none;top=0;left=0;bottom=0;right=0;pointerEvents=1;fontSize=16;" vertex="1" parent="OqbQ4sYl66E1r_fSmcML-98">
          <mxGeometry width="60" height="40" as="geometry">
            <mxRectangle width="60" height="40" as="alternateBounds" />
          </mxGeometry>
        </mxCell>
        <mxCell id="OqbQ4sYl66E1r_fSmcML-100" value="s" style="shape=partialRectangle;html=1;whiteSpace=wrap;connectable=0;strokeColor=inherit;overflow=hidden;fillColor=none;top=0;left=0;bottom=0;right=0;pointerEvents=1;fontSize=16;" vertex="1" parent="OqbQ4sYl66E1r_fSmcML-98">
          <mxGeometry x="60" width="60" height="40" as="geometry">
            <mxRectangle width="60" height="40" as="alternateBounds" />
          </mxGeometry>
        </mxCell>
        <mxCell id="OqbQ4sYl66E1r_fSmcML-101" value="2,3,4" style="shape=partialRectangle;html=1;whiteSpace=wrap;connectable=0;strokeColor=inherit;overflow=hidden;fillColor=none;top=0;left=0;bottom=0;right=0;pointerEvents=1;fontSize=16;" vertex="1" parent="OqbQ4sYl66E1r_fSmcML-98">
          <mxGeometry x="120" width="60" height="40" as="geometry">
            <mxRectangle width="60" height="40" as="alternateBounds" />
          </mxGeometry>
        </mxCell>
        <mxCell id="OqbQ4sYl66E1r_fSmcML-94" style="shape=tableRow;horizontal=0;startSize=0;swimlaneHead=0;swimlaneBody=0;strokeColor=inherit;top=0;left=0;bottom=0;right=0;collapsible=0;dropTarget=0;fillColor=none;points=[[0,0.5],[1,0.5]];portConstraint=eastwest;fontSize=16;" vertex="1" parent="OqbQ4sYl66E1r_fSmcML-50">
          <mxGeometry y="80" width="180" height="40" as="geometry" />
        </mxCell>
        <mxCell id="OqbQ4sYl66E1r_fSmcML-95" value="2" style="shape=partialRectangle;html=1;whiteSpace=wrap;connectable=0;strokeColor=inherit;overflow=hidden;fillColor=none;top=0;left=0;bottom=0;right=0;pointerEvents=1;fontSize=16;" vertex="1" parent="OqbQ4sYl66E1r_fSmcML-94">
          <mxGeometry width="60" height="40" as="geometry">
            <mxRectangle width="60" height="40" as="alternateBounds" />
          </mxGeometry>
        </mxCell>
        <mxCell id="OqbQ4sYl66E1r_fSmcML-96" value="o" style="shape=partialRectangle;html=1;whiteSpace=wrap;connectable=0;strokeColor=inherit;overflow=hidden;fillColor=none;top=0;left=0;bottom=0;right=0;pointerEvents=1;fontSize=16;" vertex="1" parent="OqbQ4sYl66E1r_fSmcML-94">
          <mxGeometry x="60" width="60" height="40" as="geometry">
            <mxRectangle width="60" height="40" as="alternateBounds" />
          </mxGeometry>
        </mxCell>
        <mxCell id="OqbQ4sYl66E1r_fSmcML-97" value="2,3,4" style="shape=partialRectangle;html=1;whiteSpace=wrap;connectable=0;strokeColor=inherit;overflow=hidden;fillColor=none;top=0;left=0;bottom=0;right=0;pointerEvents=1;fontSize=16;" vertex="1" parent="OqbQ4sYl66E1r_fSmcML-94">
          <mxGeometry x="120" width="60" height="40" as="geometry">
            <mxRectangle width="60" height="40" as="alternateBounds" />
          </mxGeometry>
        </mxCell>
        <mxCell id="OqbQ4sYl66E1r_fSmcML-90" style="shape=tableRow;horizontal=0;startSize=0;swimlaneHead=0;swimlaneBody=0;strokeColor=inherit;top=0;left=0;bottom=0;right=0;collapsible=0;dropTarget=0;fillColor=none;points=[[0,0.5],[1,0.5]];portConstraint=eastwest;fontSize=16;" vertex="1" parent="OqbQ4sYl66E1r_fSmcML-50">
          <mxGeometry y="120" width="180" height="40" as="geometry" />
        </mxCell>
        <mxCell id="OqbQ4sYl66E1r_fSmcML-91" value="3" style="shape=partialRectangle;html=1;whiteSpace=wrap;connectable=0;strokeColor=inherit;overflow=hidden;fillColor=none;top=0;left=0;bottom=0;right=0;pointerEvents=1;fontSize=16;" vertex="1" parent="OqbQ4sYl66E1r_fSmcML-90">
          <mxGeometry width="60" height="40" as="geometry">
            <mxRectangle width="60" height="40" as="alternateBounds" />
          </mxGeometry>
        </mxCell>
        <mxCell id="OqbQ4sYl66E1r_fSmcML-92" value="d" style="shape=partialRectangle;html=1;whiteSpace=wrap;connectable=0;strokeColor=inherit;overflow=hidden;fillColor=none;top=0;left=0;bottom=0;right=0;pointerEvents=1;fontSize=16;" vertex="1" parent="OqbQ4sYl66E1r_fSmcML-90">
          <mxGeometry x="60" width="60" height="40" as="geometry">
            <mxRectangle width="60" height="40" as="alternateBounds" />
          </mxGeometry>
        </mxCell>
        <mxCell id="OqbQ4sYl66E1r_fSmcML-93" value="3,5" style="shape=partialRectangle;html=1;whiteSpace=wrap;connectable=0;strokeColor=inherit;overflow=hidden;fillColor=none;top=0;left=0;bottom=0;right=0;pointerEvents=1;fontSize=16;" vertex="1" parent="OqbQ4sYl66E1r_fSmcML-90">
          <mxGeometry x="120" width="60" height="40" as="geometry">
            <mxRectangle width="60" height="40" as="alternateBounds" />
          </mxGeometry>
        </mxCell>
        <mxCell id="OqbQ4sYl66E1r_fSmcML-86" style="shape=tableRow;horizontal=0;startSize=0;swimlaneHead=0;swimlaneBody=0;strokeColor=inherit;top=0;left=0;bottom=0;right=0;collapsible=0;dropTarget=0;fillColor=none;points=[[0,0.5],[1,0.5]];portConstraint=eastwest;fontSize=16;" vertex="1" parent="OqbQ4sYl66E1r_fSmcML-50">
          <mxGeometry y="160" width="180" height="40" as="geometry" />
        </mxCell>
        <mxCell id="OqbQ4sYl66E1r_fSmcML-87" value="4" style="shape=partialRectangle;html=1;whiteSpace=wrap;connectable=0;strokeColor=inherit;overflow=hidden;fillColor=none;top=0;left=0;bottom=0;right=0;pointerEvents=1;fontSize=16;" vertex="1" parent="OqbQ4sYl66E1r_fSmcML-86">
          <mxGeometry width="60" height="40" as="geometry">
            <mxRectangle width="60" height="40" as="alternateBounds" />
          </mxGeometry>
        </mxCell>
        <mxCell id="OqbQ4sYl66E1r_fSmcML-88" value="d" style="shape=partialRectangle;html=1;whiteSpace=wrap;connectable=0;strokeColor=inherit;overflow=hidden;fillColor=none;top=0;left=0;bottom=0;right=0;pointerEvents=1;fontSize=16;" vertex="1" parent="OqbQ4sYl66E1r_fSmcML-86">
          <mxGeometry x="60" width="60" height="40" as="geometry">
            <mxRectangle width="60" height="40" as="alternateBounds" />
          </mxGeometry>
        </mxCell>
        <mxCell id="OqbQ4sYl66E1r_fSmcML-89" value="4,5" style="shape=partialRectangle;html=1;whiteSpace=wrap;connectable=0;strokeColor=inherit;overflow=hidden;fillColor=none;top=0;left=0;bottom=0;right=0;pointerEvents=1;fontSize=16;" vertex="1" parent="OqbQ4sYl66E1r_fSmcML-86">
          <mxGeometry x="120" width="60" height="40" as="geometry">
            <mxRectangle width="60" height="40" as="alternateBounds" />
          </mxGeometry>
        </mxCell>
        <mxCell id="OqbQ4sYl66E1r_fSmcML-82" style="shape=tableRow;horizontal=0;startSize=0;swimlaneHead=0;swimlaneBody=0;strokeColor=inherit;top=0;left=0;bottom=0;right=0;collapsible=0;dropTarget=0;fillColor=none;points=[[0,0.5],[1,0.5]];portConstraint=eastwest;fontSize=16;" vertex="1" parent="OqbQ4sYl66E1r_fSmcML-50">
          <mxGeometry y="200" width="180" height="40" as="geometry" />
        </mxCell>
        <mxCell id="OqbQ4sYl66E1r_fSmcML-83" value="5" style="shape=partialRectangle;html=1;whiteSpace=wrap;connectable=0;strokeColor=inherit;overflow=hidden;fillColor=none;top=0;left=0;bottom=0;right=0;pointerEvents=1;fontSize=16;" vertex="1" parent="OqbQ4sYl66E1r_fSmcML-82">
          <mxGeometry width="60" height="40" as="geometry">
            <mxRectangle width="60" height="40" as="alternateBounds" />
          </mxGeometry>
        </mxCell>
        <mxCell id="OqbQ4sYl66E1r_fSmcML-84" value="p" style="shape=partialRectangle;html=1;whiteSpace=wrap;connectable=0;strokeColor=inherit;overflow=hidden;fillColor=none;top=0;left=0;bottom=0;right=0;pointerEvents=1;fontSize=16;" vertex="1" parent="OqbQ4sYl66E1r_fSmcML-82">
          <mxGeometry x="60" width="60" height="40" as="geometry">
            <mxRectangle width="60" height="40" as="alternateBounds" />
          </mxGeometry>
        </mxCell>
        <mxCell id="OqbQ4sYl66E1r_fSmcML-85" value="6" style="shape=partialRectangle;html=1;whiteSpace=wrap;connectable=0;strokeColor=inherit;overflow=hidden;fillColor=none;top=0;left=0;bottom=0;right=0;pointerEvents=1;fontSize=16;" vertex="1" parent="OqbQ4sYl66E1r_fSmcML-82">
          <mxGeometry x="120" width="60" height="40" as="geometry">
            <mxRectangle width="60" height="40" as="alternateBounds" />
          </mxGeometry>
        </mxCell>
        <mxCell id="OqbQ4sYl66E1r_fSmcML-55" value="" style="shape=tableRow;horizontal=0;startSize=0;swimlaneHead=0;swimlaneBody=0;strokeColor=inherit;top=0;left=0;bottom=0;right=0;collapsible=0;dropTarget=0;fillColor=none;points=[[0,0.5],[1,0.5]];portConstraint=eastwest;fontSize=16;" vertex="1" parent="OqbQ4sYl66E1r_fSmcML-50">
          <mxGeometry y="240" width="180" height="40" as="geometry" />
        </mxCell>
        <mxCell id="OqbQ4sYl66E1r_fSmcML-56" value="6" style="shape=partialRectangle;html=1;whiteSpace=wrap;connectable=0;strokeColor=inherit;overflow=hidden;fillColor=none;top=0;left=0;bottom=0;right=0;pointerEvents=1;fontSize=16;" vertex="1" parent="OqbQ4sYl66E1r_fSmcML-55">
          <mxGeometry width="60" height="40" as="geometry">
            <mxRectangle width="60" height="40" as="alternateBounds" />
          </mxGeometry>
        </mxCell>
        <mxCell id="OqbQ4sYl66E1r_fSmcML-57" value="d" style="shape=partialRectangle;html=1;whiteSpace=wrap;connectable=0;strokeColor=inherit;overflow=hidden;fillColor=none;top=0;left=0;bottom=0;right=0;pointerEvents=1;fontSize=16;" vertex="1" parent="OqbQ4sYl66E1r_fSmcML-55">
          <mxGeometry x="60" width="60" height="40" as="geometry">
            <mxRectangle width="60" height="40" as="alternateBounds" />
          </mxGeometry>
        </mxCell>
        <mxCell id="OqbQ4sYl66E1r_fSmcML-58" value="6,7" style="shape=partialRectangle;html=1;whiteSpace=wrap;connectable=0;strokeColor=inherit;overflow=hidden;fillColor=none;top=0;left=0;bottom=0;right=0;pointerEvents=1;fontSize=16;" vertex="1" parent="OqbQ4sYl66E1r_fSmcML-55">
          <mxGeometry x="120" width="60" height="40" as="geometry">
            <mxRectangle width="60" height="40" as="alternateBounds" />
          </mxGeometry>
        </mxCell>
        <mxCell id="OqbQ4sYl66E1r_fSmcML-59" value="" style="shape=tableRow;horizontal=0;startSize=0;swimlaneHead=0;swimlaneBody=0;strokeColor=inherit;top=0;left=0;bottom=0;right=0;collapsible=0;dropTarget=0;fillColor=none;points=[[0,0.5],[1,0.5]];portConstraint=eastwest;fontSize=16;" vertex="1" parent="OqbQ4sYl66E1r_fSmcML-50">
          <mxGeometry y="280" width="180" height="40" as="geometry" />
        </mxCell>
        <mxCell id="OqbQ4sYl66E1r_fSmcML-60" value="7" style="shape=partialRectangle;html=1;whiteSpace=wrap;connectable=0;strokeColor=inherit;overflow=hidden;fillColor=none;top=0;left=0;bottom=0;right=0;pointerEvents=1;fontSize=16;" vertex="1" parent="OqbQ4sYl66E1r_fSmcML-59">
          <mxGeometry width="60" height="40" as="geometry">
            <mxRectangle width="60" height="40" as="alternateBounds" />
          </mxGeometry>
        </mxCell>
        <mxCell id="OqbQ4sYl66E1r_fSmcML-61" value="#" style="shape=partialRectangle;html=1;whiteSpace=wrap;connectable=0;strokeColor=inherit;overflow=hidden;fillColor=none;top=0;left=0;bottom=0;right=0;pointerEvents=1;fontSize=16;" vertex="1" parent="OqbQ4sYl66E1r_fSmcML-59">
          <mxGeometry x="60" width="60" height="40" as="geometry">
            <mxRectangle width="60" height="40" as="alternateBounds" />
          </mxGeometry>
        </mxCell>
        <mxCell id="OqbQ4sYl66E1r_fSmcML-62" value="" style="shape=partialRectangle;html=1;whiteSpace=wrap;connectable=0;strokeColor=inherit;overflow=hidden;fillColor=none;top=0;left=0;bottom=0;right=0;pointerEvents=1;fontSize=16;" vertex="1" parent="OqbQ4sYl66E1r_fSmcML-59">
          <mxGeometry x="120" width="60" height="40" as="geometry">
            <mxRectangle width="60" height="40" as="alternateBounds" />
          </mxGeometry>
        </mxCell>
        <mxCell id="OqbQ4sYl66E1r_fSmcML-63" value="&lt;h3&gt;Tabla Follow Pos&lt;/h3&gt;" style="text;html=1;align=center;verticalAlign=middle;whiteSpace=wrap;rounded=0;" vertex="1" parent="1">
          <mxGeometry x="55" y="562" width="129" height="36" as="geometry" />
        </mxCell>
        <mxCell id="OqbQ4sYl66E1r_fSmcML-64" value="A" style="text;html=1;align=center;verticalAlign=middle;resizable=0;points=[];autosize=1;strokeColor=none;fillColor=none;" vertex="1" parent="1">
          <mxGeometry x="53" y="310" width="26" height="26" as="geometry" />
        </mxCell>
        <mxCell id="OqbQ4sYl66E1r_fSmcML-65" value="A" style="text;html=1;align=center;verticalAlign=middle;resizable=0;points=[];autosize=1;strokeColor=none;fillColor=none;" vertex="1" parent="1">
          <mxGeometry x="182" y="310" width="26" height="26" as="geometry" />
        </mxCell>
        <mxCell id="OqbQ4sYl66E1r_fSmcML-66" value="A" style="text;strokeColor=none;align=center;fillColor=none;html=1;verticalAlign=middle;whiteSpace=wrap;rounded=0;" vertex="1" parent="1">
          <mxGeometry x="355.0013793103449" y="362.9955172413793" width="60" height="30" as="geometry" />
        </mxCell>
        <mxCell id="OqbQ4sYl66E1r_fSmcML-67" value="1,2" style="text;html=1;align=center;verticalAlign=middle;resizable=0;points=[];autosize=1;strokeColor=none;fillColor=none;" vertex="1" parent="1">
          <mxGeometry x="85" y="252" width="35" height="26" as="geometry" />
        </mxCell>
        <mxCell id="OqbQ4sYl66E1r_fSmcML-68" value="1,2" style="text;html=1;align=center;verticalAlign=middle;resizable=0;points=[];autosize=1;strokeColor=none;fillColor=none;" vertex="1" parent="1">
          <mxGeometry x="145" y="252" width="35" height="26" as="geometry" />
        </mxCell>
        <mxCell id="OqbQ4sYl66E1r_fSmcML-69" value="A" style="text;html=1;align=center;verticalAlign=middle;resizable=0;points=[];autosize=1;strokeColor=none;fillColor=none;" vertex="1" parent="1">
          <mxGeometry x="128" y="230" width="26" height="26" as="geometry" />
        </mxCell>
        <mxCell id="OqbQ4sYl66E1r_fSmcML-70" value="3,4" style="text;html=1;align=center;verticalAlign=middle;resizable=0;points=[];autosize=1;strokeColor=none;fillColor=none;" vertex="1" parent="1">
          <mxGeometry x="289" y="319" width="35" height="26" as="geometry" />
        </mxCell>
        <mxCell id="OqbQ4sYl66E1r_fSmcML-71" value="3,4" style="text;html=1;align=center;verticalAlign=middle;resizable=0;points=[];autosize=1;strokeColor=none;fillColor=none;" vertex="1" parent="1">
          <mxGeometry x="344" y="319" width="35" height="26" as="geometry" />
        </mxCell>
        <mxCell id="OqbQ4sYl66E1r_fSmcML-72" value="5" style="text;html=1;align=center;verticalAlign=middle;resizable=0;points=[];autosize=1;strokeColor=none;fillColor=none;" vertex="1" parent="1">
          <mxGeometry x="466" y="319" width="25" height="26" as="geometry" />
        </mxCell>
        <mxCell id="OqbQ4sYl66E1r_fSmcML-73" value="6" style="text;html=1;align=center;verticalAlign=middle;resizable=0;points=[];autosize=1;strokeColor=none;fillColor=none;" vertex="1" parent="1">
          <mxGeometry x="520" y="319" width="25" height="26" as="geometry" />
        </mxCell>
        <mxCell id="OqbQ4sYl66E1r_fSmcML-74" value="3,4" style="text;html=1;align=center;verticalAlign=middle;resizable=0;points=[];autosize=1;strokeColor=none;fillColor=none;" vertex="1" parent="1">
          <mxGeometry x="382" y="254" width="35" height="26" as="geometry" />
        </mxCell>
        <mxCell id="OqbQ4sYl66E1r_fSmcML-75" value="6" style="text;html=1;align=center;verticalAlign=middle;resizable=0;points=[];autosize=1;strokeColor=none;fillColor=none;" vertex="1" parent="1">
          <mxGeometry x="438" y="256" width="25" height="26" as="geometry" />
        </mxCell>
        <mxCell id="OqbQ4sYl66E1r_fSmcML-76" value="1,2,3,4" style="text;html=1;align=center;verticalAlign=middle;resizable=0;points=[];autosize=1;strokeColor=none;fillColor=none;" vertex="1" parent="1">
          <mxGeometry x="263" y="148" width="55" height="26" as="geometry" />
        </mxCell>
        <mxCell id="OqbQ4sYl66E1r_fSmcML-77" value="6" style="text;html=1;align=center;verticalAlign=middle;resizable=0;points=[];autosize=1;strokeColor=none;fillColor=none;" vertex="1" parent="1">
          <mxGeometry x="346" y="151" width="25" height="26" as="geometry" />
        </mxCell>
        <mxCell id="OqbQ4sYl66E1r_fSmcML-78" value="1,2,3,4" style="text;html=1;align=center;verticalAlign=middle;resizable=0;points=[];autosize=1;strokeColor=none;fillColor=none;" vertex="1" parent="1">
          <mxGeometry x="444" y="95" width="55" height="26" as="geometry" />
        </mxCell>
        <mxCell id="OqbQ4sYl66E1r_fSmcML-79" value="7" style="text;html=1;align=center;verticalAlign=middle;resizable=0;points=[];autosize=1;strokeColor=none;fillColor=none;" vertex="1" parent="1">
          <mxGeometry x="567" y="142" width="25" height="26" as="geometry" />
        </mxCell>
        <mxCell id="OqbQ4sYl66E1r_fSmcML-80" value="7" style="text;html=1;align=center;verticalAlign=middle;resizable=0;points=[];autosize=1;strokeColor=none;fillColor=none;" vertex="1" parent="1">
          <mxGeometry x="609" y="142" width="25" height="26" as="geometry" />
        </mxCell>
        <mxCell id="OqbQ4sYl66E1r_fSmcML-104" value="1" style="text;html=1;align=center;verticalAlign=middle;resizable=0;points=[];autosize=1;strokeColor=none;fillColor=none;" vertex="1" parent="1">
          <mxGeometry x="37" y="337" width="25" height="26" as="geometry" />
        </mxCell>
        <mxCell id="OqbQ4sYl66E1r_fSmcML-105" value="1" style="text;html=1;align=center;verticalAlign=middle;resizable=0;points=[];autosize=1;strokeColor=none;fillColor=none;" vertex="1" parent="1">
          <mxGeometry x="97" y="338" width="25" height="26" as="geometry" />
        </mxCell>
        <mxCell id="OqbQ4sYl66E1r_fSmcML-106" value="1" style="text;html=1;align=center;verticalAlign=middle;resizable=0;points=[];autosize=1;strokeColor=none;fillColor=none;" vertex="1" parent="1">
          <mxGeometry x="40" y="418.5" width="25" height="26" as="geometry" />
        </mxCell>
        <mxCell id="OqbQ4sYl66E1r_fSmcML-107" value="1" style="text;html=1;align=center;verticalAlign=middle;resizable=0;points=[];autosize=1;strokeColor=none;fillColor=none;" vertex="1" parent="1">
          <mxGeometry x="97" y="418.5" width="25" height="26" as="geometry" />
        </mxCell>
        <mxCell id="OqbQ4sYl66E1r_fSmcML-108" value="2" style="text;html=1;align=center;verticalAlign=middle;resizable=0;points=[];autosize=1;strokeColor=none;fillColor=none;" vertex="1" parent="1">
          <mxGeometry x="135" y="418.5" width="25" height="26" as="geometry" />
        </mxCell>
        <mxCell id="OqbQ4sYl66E1r_fSmcML-110" value="2" style="text;html=1;align=center;verticalAlign=middle;resizable=0;points=[];autosize=1;strokeColor=none;fillColor=none;" vertex="1" parent="1">
          <mxGeometry x="188" y="418.5" width="25" height="26" as="geometry" />
        </mxCell>
        <mxCell id="OqbQ4sYl66E1r_fSmcML-111" value="2" style="text;html=1;align=center;verticalAlign=middle;resizable=0;points=[];autosize=1;strokeColor=none;fillColor=none;" vertex="1" parent="1">
          <mxGeometry x="190" y="334" width="25" height="26" as="geometry" />
        </mxCell>
        <mxCell id="OqbQ4sYl66E1r_fSmcML-112" value="2" style="text;html=1;align=center;verticalAlign=middle;resizable=0;points=[];autosize=1;strokeColor=none;fillColor=none;" vertex="1" parent="1">
          <mxGeometry x="131" y="334" width="25" height="26" as="geometry" />
        </mxCell>
        <mxCell id="OqbQ4sYl66E1r_fSmcML-113" value="3" style="text;html=1;align=center;verticalAlign=middle;resizable=0;points=[];autosize=1;strokeColor=none;fillColor=none;" vertex="1" parent="1">
          <mxGeometry x="252" y="469" width="25" height="26" as="geometry" />
        </mxCell>
        <mxCell id="OqbQ4sYl66E1r_fSmcML-114" value="3" style="text;html=1;align=center;verticalAlign=middle;resizable=0;points=[];autosize=1;strokeColor=none;fillColor=none;" vertex="1" parent="1">
          <mxGeometry x="310" y="470" width="25" height="26" as="geometry" />
        </mxCell>
        <mxCell id="OqbQ4sYl66E1r_fSmcML-115" value="4" style="text;html=1;align=center;verticalAlign=middle;resizable=0;points=[];autosize=1;strokeColor=none;fillColor=none;" vertex="1" parent="1">
          <mxGeometry x="339" y="472" width="25" height="26" as="geometry" />
        </mxCell>
        <mxCell id="OqbQ4sYl66E1r_fSmcML-116" value="4" style="text;html=1;align=center;verticalAlign=middle;resizable=0;points=[];autosize=1;strokeColor=none;fillColor=none;" vertex="1" parent="1">
          <mxGeometry x="388" y="473" width="25" height="26" as="geometry" />
        </mxCell>
        <mxCell id="OqbQ4sYl66E1r_fSmcML-117" value="4" style="text;html=1;align=center;verticalAlign=middle;resizable=0;points=[];autosize=1;strokeColor=none;fillColor=none;" vertex="1" parent="1">
          <mxGeometry x="391" y="395" width="25" height="26" as="geometry" />
        </mxCell>
        <mxCell id="OqbQ4sYl66E1r_fSmcML-118" value="4" style="text;html=1;align=center;verticalAlign=middle;resizable=0;points=[];autosize=1;strokeColor=none;fillColor=none;" vertex="1" parent="1">
          <mxGeometry x="335" y="393" width="25" height="26" as="geometry" />
        </mxCell>
        <mxCell id="OqbQ4sYl66E1r_fSmcML-119" value="3" style="text;html=1;align=center;verticalAlign=middle;resizable=0;points=[];autosize=1;strokeColor=none;fillColor=none;" vertex="1" parent="1">
          <mxGeometry x="306" y="393" width="25" height="26" as="geometry" />
        </mxCell>
        <mxCell id="OqbQ4sYl66E1r_fSmcML-120" value="3" style="text;html=1;align=center;verticalAlign=middle;resizable=0;points=[];autosize=1;strokeColor=none;fillColor=none;" vertex="1" parent="1">
          <mxGeometry x="254" y="389" width="25" height="26" as="geometry" />
        </mxCell>
        <mxCell id="OqbQ4sYl66E1r_fSmcML-121" value="5" style="text;html=1;align=center;verticalAlign=middle;resizable=0;points=[];autosize=1;strokeColor=none;fillColor=none;" vertex="1" parent="1">
          <mxGeometry x="416" y="391" width="25" height="26" as="geometry" />
        </mxCell>
        <mxCell id="OqbQ4sYl66E1r_fSmcML-122" value="5" style="text;html=1;align=center;verticalAlign=middle;resizable=0;points=[];autosize=1;strokeColor=none;fillColor=none;" vertex="1" parent="1">
          <mxGeometry x="474" y="393" width="25" height="26" as="geometry" />
        </mxCell>
        <mxCell id="OqbQ4sYl66E1r_fSmcML-125" value="6" style="text;html=1;align=center;verticalAlign=middle;resizable=0;points=[];autosize=1;strokeColor=none;fillColor=none;" vertex="1" parent="1">
          <mxGeometry x="522" y="471" width="25" height="26" as="geometry" />
        </mxCell>
        <mxCell id="OqbQ4sYl66E1r_fSmcML-126" value="6" style="text;html=1;align=center;verticalAlign=middle;resizable=0;points=[];autosize=1;strokeColor=none;fillColor=none;" vertex="1" parent="1">
          <mxGeometry x="574" y="472" width="25" height="26" as="geometry" />
        </mxCell>
        <mxCell id="OqbQ4sYl66E1r_fSmcML-127" value="6" style="text;html=1;align=center;verticalAlign=middle;resizable=0;points=[];autosize=1;strokeColor=none;fillColor=none;" vertex="1" parent="1">
          <mxGeometry x="519" y="386" width="25" height="26" as="geometry" />
        </mxCell>
        <mxCell id="OqbQ4sYl66E1r_fSmcML-128" value="6" style="text;html=1;align=center;verticalAlign=middle;resizable=0;points=[];autosize=1;strokeColor=none;fillColor=none;" vertex="1" parent="1">
          <mxGeometry x="580" y="387" width="25" height="26" as="geometry" />
        </mxCell>
        <mxCell id="OqbQ4sYl66E1r_fSmcML-129" style="edgeStyle=orthogonalEdgeStyle;rounded=0;orthogonalLoop=1;jettySize=auto;html=1;exitX=0.554;exitY=1.027;exitDx=0;exitDy=0;exitPerimeter=0;fillColor=#f8cecc;strokeColor=#b85450;" edge="1" parent="1" source="OqbQ4sYl66E1r_fSmcML-119">
          <mxGeometry relative="1" as="geometry">
            <mxPoint x="262" y="410" as="targetPoint" />
            <Array as="points">
              <mxPoint x="320" y="439" />
              <mxPoint x="262" y="439" />
            </Array>
          </mxGeometry>
        </mxCell>
        <mxCell id="OqbQ4sYl66E1r_fSmcML-130" style="edgeStyle=orthogonalEdgeStyle;rounded=0;orthogonalLoop=1;jettySize=auto;html=1;fillColor=#f8cecc;strokeColor=#b85450;" edge="1" parent="1" target="OqbQ4sYl66E1r_fSmcML-118">
          <mxGeometry relative="1" as="geometry">
            <mxPoint x="404" y="424" as="sourcePoint" />
            <Array as="points">
              <mxPoint x="404" y="423" />
              <mxPoint x="404" y="439" />
              <mxPoint x="348" y="439" />
            </Array>
          </mxGeometry>
        </mxCell>
        <mxCell id="OqbQ4sYl66E1r_fSmcML-131" style="edgeStyle=orthogonalEdgeStyle;rounded=0;orthogonalLoop=1;jettySize=auto;html=1;exitX=0.554;exitY=1.027;exitDx=0;exitDy=0;exitPerimeter=0;fillColor=#f8cecc;strokeColor=#b85450;" edge="1" parent="1">
          <mxGeometry relative="1" as="geometry">
            <mxPoint x="201" y="362" as="sourcePoint" />
            <mxPoint x="143" y="352" as="targetPoint" />
            <Array as="points">
              <mxPoint x="201" y="381" />
              <mxPoint x="143" y="381" />
            </Array>
          </mxGeometry>
        </mxCell>
        <mxCell id="OqbQ4sYl66E1r_fSmcML-132" style="edgeStyle=orthogonalEdgeStyle;rounded=0;orthogonalLoop=1;jettySize=auto;html=1;exitX=0.554;exitY=1.027;exitDx=0;exitDy=0;exitPerimeter=0;fillColor=#f8cecc;strokeColor=#b85450;" edge="1" parent="1">
          <mxGeometry relative="1" as="geometry">
            <mxPoint x="589.98" y="418" as="sourcePoint" />
            <mxPoint x="531.98" y="408" as="targetPoint" />
            <Array as="points">
              <mxPoint x="589.98" y="437" />
              <mxPoint x="531.98" y="437" />
            </Array>
          </mxGeometry>
        </mxCell>
        <mxCell id="OqbQ4sYl66E1r_fSmcML-134" style="edgeStyle=orthogonalEdgeStyle;rounded=0;orthogonalLoop=1;jettySize=auto;html=1;entryX=0.077;entryY=1.082;entryDx=0;entryDy=0;entryPerimeter=0;fillColor=#f8cecc;strokeColor=#b85450;" edge="1" parent="1" target="OqbQ4sYl66E1r_fSmcML-79">
          <mxGeometry relative="1" as="geometry">
            <mxPoint x="360" y="194" as="sourcePoint" />
          </mxGeometry>
        </mxCell>
        <mxCell id="OqbQ4sYl66E1r_fSmcML-139" style="edgeStyle=orthogonalEdgeStyle;rounded=0;orthogonalLoop=1;jettySize=auto;html=1;entryX=-0.033;entryY=0.435;entryDx=0;entryDy=0;entryPerimeter=0;fillColor=#f8cecc;strokeColor=#b85450;" edge="1" parent="1" source="OqbQ4sYl66E1r_fSmcML-68" target="OqbQ4sYl66E1r_fSmcML-74">
          <mxGeometry relative="1" as="geometry" />
        </mxCell>
        <mxCell id="OqbQ4sYl66E1r_fSmcML-140" value="&lt;h3&gt;Tabla Trancisiones&lt;/h3&gt;" style="text;html=1;align=center;verticalAlign=middle;whiteSpace=wrap;rounded=0;" vertex="1" parent="1">
          <mxGeometry x="364" y="562" width="129" height="36" as="geometry" />
        </mxCell>
        <mxCell id="OqbQ4sYl66E1r_fSmcML-141" value="" style="shape=table;startSize=0;container=1;collapsible=0;childLayout=tableLayout;fontSize=16;" vertex="1" parent="1">
          <mxGeometry x="361.5" y="595" width="360" height="240" as="geometry" />
        </mxCell>
        <mxCell id="OqbQ4sYl66E1r_fSmcML-158" style="shape=tableRow;horizontal=0;startSize=0;swimlaneHead=0;swimlaneBody=0;strokeColor=inherit;top=0;left=0;bottom=0;right=0;collapsible=0;dropTarget=0;fillColor=none;points=[[0,0.5],[1,0.5]];portConstraint=eastwest;fontSize=16;" vertex="1" parent="OqbQ4sYl66E1r_fSmcML-141">
          <mxGeometry width="360" height="40" as="geometry" />
        </mxCell>
        <mxCell id="OqbQ4sYl66E1r_fSmcML-159" style="shape=partialRectangle;html=1;whiteSpace=wrap;connectable=0;strokeColor=inherit;overflow=hidden;fillColor=none;top=0;left=0;bottom=0;right=0;pointerEvents=1;fontSize=16;" vertex="1" parent="OqbQ4sYl66E1r_fSmcML-158">
          <mxGeometry width="60" height="40" as="geometry">
            <mxRectangle width="60" height="40" as="alternateBounds" />
          </mxGeometry>
        </mxCell>
        <mxCell id="OqbQ4sYl66E1r_fSmcML-160" value="s" style="shape=partialRectangle;html=1;whiteSpace=wrap;connectable=0;strokeColor=inherit;overflow=hidden;fillColor=none;top=0;left=0;bottom=0;right=0;pointerEvents=1;fontSize=16;" vertex="1" parent="OqbQ4sYl66E1r_fSmcML-158">
          <mxGeometry x="60" width="60" height="40" as="geometry">
            <mxRectangle width="60" height="40" as="alternateBounds" />
          </mxGeometry>
        </mxCell>
        <mxCell id="OqbQ4sYl66E1r_fSmcML-161" value="o" style="shape=partialRectangle;html=1;whiteSpace=wrap;connectable=0;strokeColor=inherit;overflow=hidden;fillColor=none;top=0;left=0;bottom=0;right=0;pointerEvents=1;fontSize=16;" vertex="1" parent="OqbQ4sYl66E1r_fSmcML-158">
          <mxGeometry x="120" width="60" height="40" as="geometry">
            <mxRectangle width="60" height="40" as="alternateBounds" />
          </mxGeometry>
        </mxCell>
        <mxCell id="OqbQ4sYl66E1r_fSmcML-162" value="d" style="shape=partialRectangle;html=1;whiteSpace=wrap;connectable=0;strokeColor=inherit;overflow=hidden;fillColor=none;top=0;left=0;bottom=0;right=0;pointerEvents=1;fontSize=16;" vertex="1" parent="OqbQ4sYl66E1r_fSmcML-158">
          <mxGeometry x="180" width="60" height="40" as="geometry">
            <mxRectangle width="60" height="40" as="alternateBounds" />
          </mxGeometry>
        </mxCell>
        <mxCell id="OqbQ4sYl66E1r_fSmcML-167" value="p" style="shape=partialRectangle;html=1;whiteSpace=wrap;connectable=0;strokeColor=inherit;overflow=hidden;fillColor=none;top=0;left=0;bottom=0;right=0;pointerEvents=1;fontSize=16;" vertex="1" parent="OqbQ4sYl66E1r_fSmcML-158">
          <mxGeometry x="240" width="60" height="40" as="geometry">
            <mxRectangle width="60" height="40" as="alternateBounds" />
          </mxGeometry>
        </mxCell>
        <mxCell id="OqbQ4sYl66E1r_fSmcML-172" value="ACE" style="shape=partialRectangle;html=1;whiteSpace=wrap;connectable=0;strokeColor=inherit;overflow=hidden;fillColor=none;top=0;left=0;bottom=0;right=0;pointerEvents=1;fontSize=16;" vertex="1" parent="OqbQ4sYl66E1r_fSmcML-158">
          <mxGeometry x="300" width="60" height="40" as="geometry">
            <mxRectangle width="60" height="40" as="alternateBounds" />
          </mxGeometry>
        </mxCell>
        <mxCell id="OqbQ4sYl66E1r_fSmcML-154" style="shape=tableRow;horizontal=0;startSize=0;swimlaneHead=0;swimlaneBody=0;strokeColor=inherit;top=0;left=0;bottom=0;right=0;collapsible=0;dropTarget=0;fillColor=none;points=[[0,0.5],[1,0.5]];portConstraint=eastwest;fontSize=16;" vertex="1" parent="OqbQ4sYl66E1r_fSmcML-141">
          <mxGeometry y="40" width="360" height="40" as="geometry" />
        </mxCell>
        <mxCell id="OqbQ4sYl66E1r_fSmcML-155" value="x0 = {1,2,3,4}" style="shape=partialRectangle;html=1;whiteSpace=wrap;connectable=0;strokeColor=inherit;overflow=hidden;fillColor=none;top=0;left=0;bottom=0;right=0;pointerEvents=1;fontSize=16;" vertex="1" parent="OqbQ4sYl66E1r_fSmcML-154">
          <mxGeometry width="60" height="40" as="geometry">
            <mxRectangle width="60" height="40" as="alternateBounds" />
          </mxGeometry>
        </mxCell>
        <mxCell id="OqbQ4sYl66E1r_fSmcML-156" value="x1" style="shape=partialRectangle;html=1;whiteSpace=wrap;connectable=0;strokeColor=inherit;overflow=hidden;fillColor=none;top=0;left=0;bottom=0;right=0;pointerEvents=1;fontSize=16;" vertex="1" parent="OqbQ4sYl66E1r_fSmcML-154">
          <mxGeometry x="60" width="60" height="40" as="geometry">
            <mxRectangle width="60" height="40" as="alternateBounds" />
          </mxGeometry>
        </mxCell>
        <mxCell id="OqbQ4sYl66E1r_fSmcML-157" value="x1" style="shape=partialRectangle;html=1;whiteSpace=wrap;connectable=0;strokeColor=inherit;overflow=hidden;fillColor=none;top=0;left=0;bottom=0;right=0;pointerEvents=1;fontSize=16;" vertex="1" parent="OqbQ4sYl66E1r_fSmcML-154">
          <mxGeometry x="120" width="60" height="40" as="geometry">
            <mxRectangle width="60" height="40" as="alternateBounds" />
          </mxGeometry>
        </mxCell>
        <mxCell id="OqbQ4sYl66E1r_fSmcML-163" value="x2" style="shape=partialRectangle;html=1;whiteSpace=wrap;connectable=0;strokeColor=inherit;overflow=hidden;fillColor=none;top=0;left=0;bottom=0;right=0;pointerEvents=1;fontSize=16;" vertex="1" parent="OqbQ4sYl66E1r_fSmcML-154">
          <mxGeometry x="180" width="60" height="40" as="geometry">
            <mxRectangle width="60" height="40" as="alternateBounds" />
          </mxGeometry>
        </mxCell>
        <mxCell id="OqbQ4sYl66E1r_fSmcML-168" style="shape=partialRectangle;html=1;whiteSpace=wrap;connectable=0;strokeColor=inherit;overflow=hidden;fillColor=none;top=0;left=0;bottom=0;right=0;pointerEvents=1;fontSize=16;" vertex="1" parent="OqbQ4sYl66E1r_fSmcML-154">
          <mxGeometry x="240" width="60" height="40" as="geometry">
            <mxRectangle width="60" height="40" as="alternateBounds" />
          </mxGeometry>
        </mxCell>
        <mxCell id="OqbQ4sYl66E1r_fSmcML-173" style="shape=partialRectangle;html=1;whiteSpace=wrap;connectable=0;strokeColor=inherit;overflow=hidden;fillColor=none;top=0;left=0;bottom=0;right=0;pointerEvents=1;fontSize=16;" vertex="1" parent="OqbQ4sYl66E1r_fSmcML-154">
          <mxGeometry x="300" width="60" height="40" as="geometry">
            <mxRectangle width="60" height="40" as="alternateBounds" />
          </mxGeometry>
        </mxCell>
        <mxCell id="OqbQ4sYl66E1r_fSmcML-142" value="" style="shape=tableRow;horizontal=0;startSize=0;swimlaneHead=0;swimlaneBody=0;strokeColor=inherit;top=0;left=0;bottom=0;right=0;collapsible=0;dropTarget=0;fillColor=none;points=[[0,0.5],[1,0.5]];portConstraint=eastwest;fontSize=16;" vertex="1" parent="OqbQ4sYl66E1r_fSmcML-141">
          <mxGeometry y="80" width="360" height="40" as="geometry" />
        </mxCell>
        <mxCell id="OqbQ4sYl66E1r_fSmcML-143" value="x1 = {2,3,4}" style="shape=partialRectangle;html=1;whiteSpace=wrap;connectable=0;strokeColor=inherit;overflow=hidden;fillColor=none;top=0;left=0;bottom=0;right=0;pointerEvents=1;fontSize=16;" vertex="1" parent="OqbQ4sYl66E1r_fSmcML-142">
          <mxGeometry width="60" height="40" as="geometry">
            <mxRectangle width="60" height="40" as="alternateBounds" />
          </mxGeometry>
        </mxCell>
        <mxCell id="OqbQ4sYl66E1r_fSmcML-144" value="" style="shape=partialRectangle;html=1;whiteSpace=wrap;connectable=0;strokeColor=inherit;overflow=hidden;fillColor=none;top=0;left=0;bottom=0;right=0;pointerEvents=1;fontSize=16;" vertex="1" parent="OqbQ4sYl66E1r_fSmcML-142">
          <mxGeometry x="60" width="60" height="40" as="geometry">
            <mxRectangle width="60" height="40" as="alternateBounds" />
          </mxGeometry>
        </mxCell>
        <mxCell id="OqbQ4sYl66E1r_fSmcML-145" value="x1" style="shape=partialRectangle;html=1;whiteSpace=wrap;connectable=0;strokeColor=inherit;overflow=hidden;fillColor=none;top=0;left=0;bottom=0;right=0;pointerEvents=1;fontSize=16;" vertex="1" parent="OqbQ4sYl66E1r_fSmcML-142">
          <mxGeometry x="120" width="60" height="40" as="geometry">
            <mxRectangle width="60" height="40" as="alternateBounds" />
          </mxGeometry>
        </mxCell>
        <mxCell id="OqbQ4sYl66E1r_fSmcML-164" value="x2" style="shape=partialRectangle;html=1;whiteSpace=wrap;connectable=0;strokeColor=inherit;overflow=hidden;fillColor=none;top=0;left=0;bottom=0;right=0;pointerEvents=1;fontSize=16;" vertex="1" parent="OqbQ4sYl66E1r_fSmcML-142">
          <mxGeometry x="180" width="60" height="40" as="geometry">
            <mxRectangle width="60" height="40" as="alternateBounds" />
          </mxGeometry>
        </mxCell>
        <mxCell id="OqbQ4sYl66E1r_fSmcML-169" style="shape=partialRectangle;html=1;whiteSpace=wrap;connectable=0;strokeColor=inherit;overflow=hidden;fillColor=none;top=0;left=0;bottom=0;right=0;pointerEvents=1;fontSize=16;" vertex="1" parent="OqbQ4sYl66E1r_fSmcML-142">
          <mxGeometry x="240" width="60" height="40" as="geometry">
            <mxRectangle width="60" height="40" as="alternateBounds" />
          </mxGeometry>
        </mxCell>
        <mxCell id="OqbQ4sYl66E1r_fSmcML-174" style="shape=partialRectangle;html=1;whiteSpace=wrap;connectable=0;strokeColor=inherit;overflow=hidden;fillColor=none;top=0;left=0;bottom=0;right=0;pointerEvents=1;fontSize=16;" vertex="1" parent="OqbQ4sYl66E1r_fSmcML-142">
          <mxGeometry x="300" width="60" height="40" as="geometry">
            <mxRectangle width="60" height="40" as="alternateBounds" />
          </mxGeometry>
        </mxCell>
        <mxCell id="OqbQ4sYl66E1r_fSmcML-146" value="" style="shape=tableRow;horizontal=0;startSize=0;swimlaneHead=0;swimlaneBody=0;strokeColor=inherit;top=0;left=0;bottom=0;right=0;collapsible=0;dropTarget=0;fillColor=none;points=[[0,0.5],[1,0.5]];portConstraint=eastwest;fontSize=16;" vertex="1" parent="OqbQ4sYl66E1r_fSmcML-141">
          <mxGeometry y="120" width="360" height="40" as="geometry" />
        </mxCell>
        <mxCell id="OqbQ4sYl66E1r_fSmcML-147" value="x2 = {3,4,5}" style="shape=partialRectangle;html=1;whiteSpace=wrap;connectable=0;strokeColor=inherit;overflow=hidden;fillColor=none;top=0;left=0;bottom=0;right=0;pointerEvents=1;fontSize=16;" vertex="1" parent="OqbQ4sYl66E1r_fSmcML-146">
          <mxGeometry width="60" height="40" as="geometry">
            <mxRectangle width="60" height="40" as="alternateBounds" />
          </mxGeometry>
        </mxCell>
        <mxCell id="OqbQ4sYl66E1r_fSmcML-148" value="" style="shape=partialRectangle;html=1;whiteSpace=wrap;connectable=0;strokeColor=inherit;overflow=hidden;fillColor=none;top=0;left=0;bottom=0;right=0;pointerEvents=1;fontSize=16;" vertex="1" parent="OqbQ4sYl66E1r_fSmcML-146">
          <mxGeometry x="60" width="60" height="40" as="geometry">
            <mxRectangle width="60" height="40" as="alternateBounds" />
          </mxGeometry>
        </mxCell>
        <mxCell id="OqbQ4sYl66E1r_fSmcML-149" value="" style="shape=partialRectangle;html=1;whiteSpace=wrap;connectable=0;strokeColor=inherit;overflow=hidden;fillColor=none;top=0;left=0;bottom=0;right=0;pointerEvents=1;fontSize=16;" vertex="1" parent="OqbQ4sYl66E1r_fSmcML-146">
          <mxGeometry x="120" width="60" height="40" as="geometry">
            <mxRectangle width="60" height="40" as="alternateBounds" />
          </mxGeometry>
        </mxCell>
        <mxCell id="OqbQ4sYl66E1r_fSmcML-165" value="x2" style="shape=partialRectangle;html=1;whiteSpace=wrap;connectable=0;strokeColor=inherit;overflow=hidden;fillColor=none;top=0;left=0;bottom=0;right=0;pointerEvents=1;fontSize=16;" vertex="1" parent="OqbQ4sYl66E1r_fSmcML-146">
          <mxGeometry x="180" width="60" height="40" as="geometry">
            <mxRectangle width="60" height="40" as="alternateBounds" />
          </mxGeometry>
        </mxCell>
        <mxCell id="OqbQ4sYl66E1r_fSmcML-170" value="x3" style="shape=partialRectangle;html=1;whiteSpace=wrap;connectable=0;strokeColor=inherit;overflow=hidden;fillColor=none;top=0;left=0;bottom=0;right=0;pointerEvents=1;fontSize=16;" vertex="1" parent="OqbQ4sYl66E1r_fSmcML-146">
          <mxGeometry x="240" width="60" height="40" as="geometry">
            <mxRectangle width="60" height="40" as="alternateBounds" />
          </mxGeometry>
        </mxCell>
        <mxCell id="OqbQ4sYl66E1r_fSmcML-175" style="shape=partialRectangle;html=1;whiteSpace=wrap;connectable=0;strokeColor=inherit;overflow=hidden;fillColor=none;top=0;left=0;bottom=0;right=0;pointerEvents=1;fontSize=16;" vertex="1" parent="OqbQ4sYl66E1r_fSmcML-146">
          <mxGeometry x="300" width="60" height="40" as="geometry">
            <mxRectangle width="60" height="40" as="alternateBounds" />
          </mxGeometry>
        </mxCell>
        <mxCell id="OqbQ4sYl66E1r_fSmcML-150" value="" style="shape=tableRow;horizontal=0;startSize=0;swimlaneHead=0;swimlaneBody=0;strokeColor=inherit;top=0;left=0;bottom=0;right=0;collapsible=0;dropTarget=0;fillColor=none;points=[[0,0.5],[1,0.5]];portConstraint=eastwest;fontSize=16;" vertex="1" parent="OqbQ4sYl66E1r_fSmcML-141">
          <mxGeometry y="160" width="360" height="40" as="geometry" />
        </mxCell>
        <mxCell id="OqbQ4sYl66E1r_fSmcML-151" value="x3 = {6}" style="shape=partialRectangle;html=1;whiteSpace=wrap;connectable=0;strokeColor=inherit;overflow=hidden;fillColor=none;top=0;left=0;bottom=0;right=0;pointerEvents=1;fontSize=16;" vertex="1" parent="OqbQ4sYl66E1r_fSmcML-150">
          <mxGeometry width="60" height="40" as="geometry">
            <mxRectangle width="60" height="40" as="alternateBounds" />
          </mxGeometry>
        </mxCell>
        <mxCell id="OqbQ4sYl66E1r_fSmcML-152" value="" style="shape=partialRectangle;html=1;whiteSpace=wrap;connectable=0;strokeColor=inherit;overflow=hidden;fillColor=none;top=0;left=0;bottom=0;right=0;pointerEvents=1;fontSize=16;" vertex="1" parent="OqbQ4sYl66E1r_fSmcML-150">
          <mxGeometry x="60" width="60" height="40" as="geometry">
            <mxRectangle width="60" height="40" as="alternateBounds" />
          </mxGeometry>
        </mxCell>
        <mxCell id="OqbQ4sYl66E1r_fSmcML-153" value="" style="shape=partialRectangle;html=1;whiteSpace=wrap;connectable=0;strokeColor=inherit;overflow=hidden;fillColor=none;top=0;left=0;bottom=0;right=0;pointerEvents=1;fontSize=16;" vertex="1" parent="OqbQ4sYl66E1r_fSmcML-150">
          <mxGeometry x="120" width="60" height="40" as="geometry">
            <mxRectangle width="60" height="40" as="alternateBounds" />
          </mxGeometry>
        </mxCell>
        <mxCell id="OqbQ4sYl66E1r_fSmcML-166" value="x4" style="shape=partialRectangle;html=1;whiteSpace=wrap;connectable=0;strokeColor=inherit;overflow=hidden;fillColor=none;top=0;left=0;bottom=0;right=0;pointerEvents=1;fontSize=16;" vertex="1" parent="OqbQ4sYl66E1r_fSmcML-150">
          <mxGeometry x="180" width="60" height="40" as="geometry">
            <mxRectangle width="60" height="40" as="alternateBounds" />
          </mxGeometry>
        </mxCell>
        <mxCell id="OqbQ4sYl66E1r_fSmcML-171" style="shape=partialRectangle;html=1;whiteSpace=wrap;connectable=0;strokeColor=inherit;overflow=hidden;fillColor=none;top=0;left=0;bottom=0;right=0;pointerEvents=1;fontSize=16;" vertex="1" parent="OqbQ4sYl66E1r_fSmcML-150">
          <mxGeometry x="240" width="60" height="40" as="geometry">
            <mxRectangle width="60" height="40" as="alternateBounds" />
          </mxGeometry>
        </mxCell>
        <mxCell id="OqbQ4sYl66E1r_fSmcML-176" style="shape=partialRectangle;html=1;whiteSpace=wrap;connectable=0;strokeColor=inherit;overflow=hidden;fillColor=none;top=0;left=0;bottom=0;right=0;pointerEvents=1;fontSize=16;" vertex="1" parent="OqbQ4sYl66E1r_fSmcML-150">
          <mxGeometry x="300" width="60" height="40" as="geometry">
            <mxRectangle width="60" height="40" as="alternateBounds" />
          </mxGeometry>
        </mxCell>
        <mxCell id="OqbQ4sYl66E1r_fSmcML-193" style="shape=tableRow;horizontal=0;startSize=0;swimlaneHead=0;swimlaneBody=0;strokeColor=inherit;top=0;left=0;bottom=0;right=0;collapsible=0;dropTarget=0;fillColor=none;points=[[0,0.5],[1,0.5]];portConstraint=eastwest;fontSize=16;" vertex="1" parent="OqbQ4sYl66E1r_fSmcML-141">
          <mxGeometry y="200" width="360" height="40" as="geometry" />
        </mxCell>
        <mxCell id="OqbQ4sYl66E1r_fSmcML-194" value="x4 = {6,7}" style="shape=partialRectangle;html=1;whiteSpace=wrap;connectable=0;strokeColor=inherit;overflow=hidden;fillColor=none;top=0;left=0;bottom=0;right=0;pointerEvents=1;fontSize=16;" vertex="1" parent="OqbQ4sYl66E1r_fSmcML-193">
          <mxGeometry width="60" height="40" as="geometry">
            <mxRectangle width="60" height="40" as="alternateBounds" />
          </mxGeometry>
        </mxCell>
        <mxCell id="OqbQ4sYl66E1r_fSmcML-195" style="shape=partialRectangle;html=1;whiteSpace=wrap;connectable=0;strokeColor=inherit;overflow=hidden;fillColor=none;top=0;left=0;bottom=0;right=0;pointerEvents=1;fontSize=16;" vertex="1" parent="OqbQ4sYl66E1r_fSmcML-193">
          <mxGeometry x="60" width="60" height="40" as="geometry">
            <mxRectangle width="60" height="40" as="alternateBounds" />
          </mxGeometry>
        </mxCell>
        <mxCell id="OqbQ4sYl66E1r_fSmcML-196" style="shape=partialRectangle;html=1;whiteSpace=wrap;connectable=0;strokeColor=inherit;overflow=hidden;fillColor=none;top=0;left=0;bottom=0;right=0;pointerEvents=1;fontSize=16;" vertex="1" parent="OqbQ4sYl66E1r_fSmcML-193">
          <mxGeometry x="120" width="60" height="40" as="geometry">
            <mxRectangle width="60" height="40" as="alternateBounds" />
          </mxGeometry>
        </mxCell>
        <mxCell id="OqbQ4sYl66E1r_fSmcML-197" value="x4" style="shape=partialRectangle;html=1;whiteSpace=wrap;connectable=0;strokeColor=inherit;overflow=hidden;fillColor=none;top=0;left=0;bottom=0;right=0;pointerEvents=1;fontSize=16;" vertex="1" parent="OqbQ4sYl66E1r_fSmcML-193">
          <mxGeometry x="180" width="60" height="40" as="geometry">
            <mxRectangle width="60" height="40" as="alternateBounds" />
          </mxGeometry>
        </mxCell>
        <mxCell id="OqbQ4sYl66E1r_fSmcML-198" style="shape=partialRectangle;html=1;whiteSpace=wrap;connectable=0;strokeColor=inherit;overflow=hidden;fillColor=none;top=0;left=0;bottom=0;right=0;pointerEvents=1;fontSize=16;" vertex="1" parent="OqbQ4sYl66E1r_fSmcML-193">
          <mxGeometry x="240" width="60" height="40" as="geometry">
            <mxRectangle width="60" height="40" as="alternateBounds" />
          </mxGeometry>
        </mxCell>
        <mxCell id="OqbQ4sYl66E1r_fSmcML-199" value="si" style="shape=partialRectangle;html=1;whiteSpace=wrap;connectable=0;strokeColor=inherit;overflow=hidden;fillColor=none;top=0;left=0;bottom=0;right=0;pointerEvents=1;fontSize=16;" vertex="1" parent="OqbQ4sYl66E1r_fSmcML-193">
          <mxGeometry x="300" width="60" height="40" as="geometry">
            <mxRectangle width="60" height="40" as="alternateBounds" />
          </mxGeometry>
        </mxCell>
        <mxCell id="OqbQ4sYl66E1r_fSmcML-177" style="edgeStyle=orthogonalEdgeStyle;rounded=0;orthogonalLoop=1;jettySize=auto;html=1;entryX=-0.173;entryY=0.506;entryDx=0;entryDy=0;entryPerimeter=0;fillColor=#f8cecc;strokeColor=#b85450;" edge="1" parent="1" source="OqbQ4sYl66E1r_fSmcML-71" target="OqbQ4sYl66E1r_fSmcML-72">
          <mxGeometry relative="1" as="geometry" />
        </mxCell>
        <mxCell id="OqbQ4sYl66E1r_fSmcML-178" style="edgeStyle=orthogonalEdgeStyle;rounded=0;orthogonalLoop=1;jettySize=auto;html=1;entryX=0.173;entryY=0.814;entryDx=0;entryDy=0;entryPerimeter=0;fillColor=#f8cecc;strokeColor=#b85450;" edge="1" parent="1" source="OqbQ4sYl66E1r_fSmcML-122" target="OqbQ4sYl66E1r_fSmcML-127">
          <mxGeometry relative="1" as="geometry" />
        </mxCell>
        <mxCell id="OqbQ4sYl66E1r_fSmcML-202" style="edgeStyle=orthogonalEdgeStyle;rounded=0;orthogonalLoop=1;jettySize=auto;html=1;entryX=0.5;entryY=0;entryDx=0;entryDy=0;exitX=0.5;exitY=0;exitDx=0;exitDy=0;" edge="1" parent="1" source="OqbQ4sYl66E1r_fSmcML-200" target="OqbQ4sYl66E1r_fSmcML-201">
          <mxGeometry relative="1" as="geometry" />
        </mxCell>
        <mxCell id="OqbQ4sYl66E1r_fSmcML-203" value="s" style="edgeLabel;html=1;align=center;verticalAlign=middle;resizable=0;points=[];" vertex="1" connectable="0" parent="OqbQ4sYl66E1r_fSmcML-202">
          <mxGeometry x="0.0392" y="-1" relative="1" as="geometry">
            <mxPoint as="offset" />
          </mxGeometry>
        </mxCell>
        <mxCell id="OqbQ4sYl66E1r_fSmcML-204" style="edgeStyle=orthogonalEdgeStyle;rounded=0;orthogonalLoop=1;jettySize=auto;html=1;exitX=0.5;exitY=1;exitDx=0;exitDy=0;entryX=0.5;entryY=1;entryDx=0;entryDy=0;" edge="1" parent="1" source="OqbQ4sYl66E1r_fSmcML-200" target="OqbQ4sYl66E1r_fSmcML-201">
          <mxGeometry relative="1" as="geometry" />
        </mxCell>
        <mxCell id="OqbQ4sYl66E1r_fSmcML-205" value="o" style="edgeLabel;html=1;align=center;verticalAlign=middle;resizable=0;points=[];" vertex="1" connectable="0" parent="OqbQ4sYl66E1r_fSmcML-204">
          <mxGeometry x="0.1808" y="-2" relative="1" as="geometry">
            <mxPoint as="offset" />
          </mxGeometry>
        </mxCell>
        <mxCell id="OqbQ4sYl66E1r_fSmcML-207" style="edgeStyle=orthogonalEdgeStyle;rounded=0;orthogonalLoop=1;jettySize=auto;html=1;exitX=0.5;exitY=1;exitDx=0;exitDy=0;entryX=0.5;entryY=1;entryDx=0;entryDy=0;" edge="1" parent="1" source="OqbQ4sYl66E1r_fSmcML-200" target="OqbQ4sYl66E1r_fSmcML-206">
          <mxGeometry relative="1" as="geometry">
            <Array as="points">
              <mxPoint x="246" y="1081" />
              <mxPoint x="449" y="1081" />
            </Array>
          </mxGeometry>
        </mxCell>
        <mxCell id="OqbQ4sYl66E1r_fSmcML-208" value="d" style="edgeLabel;html=1;align=center;verticalAlign=middle;resizable=0;points=[];" vertex="1" connectable="0" parent="OqbQ4sYl66E1r_fSmcML-207">
          <mxGeometry x="0.1164" y="-1" relative="1" as="geometry">
            <mxPoint as="offset" />
          </mxGeometry>
        </mxCell>
        <mxCell id="OqbQ4sYl66E1r_fSmcML-200" value="x0" style="ellipse;whiteSpace=wrap;html=1;aspect=fixed;" vertex="1" parent="1">
          <mxGeometry x="220" y="984" width="51" height="51" as="geometry" />
        </mxCell>
        <mxCell id="OqbQ4sYl66E1r_fSmcML-209" style="edgeStyle=orthogonalEdgeStyle;rounded=0;orthogonalLoop=1;jettySize=auto;html=1;exitX=1;exitY=0.5;exitDx=0;exitDy=0;entryX=0;entryY=0.5;entryDx=0;entryDy=0;" edge="1" parent="1" source="OqbQ4sYl66E1r_fSmcML-201" target="OqbQ4sYl66E1r_fSmcML-206">
          <mxGeometry relative="1" as="geometry" />
        </mxCell>
        <mxCell id="OqbQ4sYl66E1r_fSmcML-210" value="d" style="edgeLabel;html=1;align=center;verticalAlign=middle;resizable=0;points=[];" vertex="1" connectable="0" parent="OqbQ4sYl66E1r_fSmcML-209">
          <mxGeometry x="-0.1368" y="3" relative="1" as="geometry">
            <mxPoint as="offset" />
          </mxGeometry>
        </mxCell>
        <mxCell id="OqbQ4sYl66E1r_fSmcML-201" value="x1" style="ellipse;whiteSpace=wrap;html=1;aspect=fixed;" vertex="1" parent="1">
          <mxGeometry x="333" y="984" width="51" height="51" as="geometry" />
        </mxCell>
        <mxCell id="OqbQ4sYl66E1r_fSmcML-218" style="edgeStyle=orthogonalEdgeStyle;rounded=0;orthogonalLoop=1;jettySize=auto;html=1;exitX=1;exitY=0.5;exitDx=0;exitDy=0;entryX=0;entryY=0.5;entryDx=0;entryDy=0;" edge="1" parent="1" source="OqbQ4sYl66E1r_fSmcML-206" target="OqbQ4sYl66E1r_fSmcML-217">
          <mxGeometry relative="1" as="geometry" />
        </mxCell>
        <mxCell id="OqbQ4sYl66E1r_fSmcML-219" value="p" style="edgeLabel;html=1;align=center;verticalAlign=middle;resizable=0;points=[];" vertex="1" connectable="0" parent="OqbQ4sYl66E1r_fSmcML-218">
          <mxGeometry x="-0.094" y="1" relative="1" as="geometry">
            <mxPoint as="offset" />
          </mxGeometry>
        </mxCell>
        <mxCell id="OqbQ4sYl66E1r_fSmcML-206" value="x2" style="ellipse;whiteSpace=wrap;html=1;aspect=fixed;" vertex="1" parent="1">
          <mxGeometry x="423" y="984" width="51" height="51" as="geometry" />
        </mxCell>
        <mxCell id="OqbQ4sYl66E1r_fSmcML-212" style="edgeStyle=orthogonalEdgeStyle;rounded=0;orthogonalLoop=1;jettySize=auto;html=1;exitX=0.5;exitY=1;exitDx=0;exitDy=0;entryX=1;entryY=1;entryDx=0;entryDy=0;" edge="1" parent="1" source="OqbQ4sYl66E1r_fSmcML-201" target="OqbQ4sYl66E1r_fSmcML-201">
          <mxGeometry relative="1" as="geometry">
            <Array as="points">
              <mxPoint x="359" y="1055" />
              <mxPoint x="377" y="1055" />
            </Array>
          </mxGeometry>
        </mxCell>
        <mxCell id="OqbQ4sYl66E1r_fSmcML-213" value="o" style="edgeLabel;html=1;align=center;verticalAlign=middle;resizable=0;points=[];" vertex="1" connectable="0" parent="OqbQ4sYl66E1r_fSmcML-212">
          <mxGeometry x="0.3238" relative="1" as="geometry">
            <mxPoint as="offset" />
          </mxGeometry>
        </mxCell>
        <mxCell id="OqbQ4sYl66E1r_fSmcML-215" style="edgeStyle=orthogonalEdgeStyle;rounded=0;orthogonalLoop=1;jettySize=auto;html=1;exitX=0.5;exitY=0;exitDx=0;exitDy=0;entryX=1;entryY=0.5;entryDx=0;entryDy=0;" edge="1" parent="1" source="OqbQ4sYl66E1r_fSmcML-206" target="OqbQ4sYl66E1r_fSmcML-206">
          <mxGeometry relative="1" as="geometry" />
        </mxCell>
        <mxCell id="OqbQ4sYl66E1r_fSmcML-216" value="d" style="edgeLabel;html=1;align=center;verticalAlign=middle;resizable=0;points=[];" vertex="1" connectable="0" parent="OqbQ4sYl66E1r_fSmcML-215">
          <mxGeometry x="-0.1569" y="-1" relative="1" as="geometry">
            <mxPoint as="offset" />
          </mxGeometry>
        </mxCell>
        <mxCell id="OqbQ4sYl66E1r_fSmcML-221" style="edgeStyle=orthogonalEdgeStyle;rounded=0;orthogonalLoop=1;jettySize=auto;html=1;exitX=1;exitY=0.5;exitDx=0;exitDy=0;entryX=0;entryY=0.5;entryDx=0;entryDy=0;" edge="1" parent="1" source="OqbQ4sYl66E1r_fSmcML-217" target="OqbQ4sYl66E1r_fSmcML-220">
          <mxGeometry relative="1" as="geometry" />
        </mxCell>
        <mxCell id="OqbQ4sYl66E1r_fSmcML-222" value="d" style="edgeLabel;html=1;align=center;verticalAlign=middle;resizable=0;points=[];" vertex="1" connectable="0" parent="OqbQ4sYl66E1r_fSmcML-221">
          <mxGeometry x="-0.1563" relative="1" as="geometry">
            <mxPoint as="offset" />
          </mxGeometry>
        </mxCell>
        <mxCell id="OqbQ4sYl66E1r_fSmcML-217" value="x3" style="ellipse;whiteSpace=wrap;html=1;aspect=fixed;" vertex="1" parent="1">
          <mxGeometry x="513" y="984" width="51" height="51" as="geometry" />
        </mxCell>
        <mxCell id="OqbQ4sYl66E1r_fSmcML-220" value="4" style="ellipse;whiteSpace=wrap;html=1;aspect=fixed;" vertex="1" parent="1">
          <mxGeometry x="596" y="984" width="51" height="51" as="geometry" />
        </mxCell>
      </root>
    </mxGraphModel>
  </diagram>
</mxfile>
